<svg width="1920" height="864" viewBox="0 0 1920 864" fill="none" xmlns="http://www.w3.org/2000/svg">
<ellipse cx="1134" cy="493.564" rx="24" ry="23.9788" fill="url(#paint0_linear_83_151)"/>
<path d="M1276.87 621.519C1273.2 620.268 1269.64 618.708 1266.23 616.854C1234.92 599.839 1224.8 565.235 1214.09 528.601C1206.55 502.858 1198.77 476.233 1182.95 456.161C1167.77 436.887 1145.85 424.655 1124.66 412.799C1113.11 406.357 1101.17 399.693 1090.33 391.933C1057.6 368.501 1035.57 323.586 1057.04 291.897C1073.52 267.567 1106.6 264.48 1124.85 264.804C1132.13 264.932 1139.55 265.463 1146.73 265.977C1163.95 267.21 1181.76 268.488 1198.7 264.218C1222.91 258.106 1243 241.386 1262.42 225.218C1273.47 215.979 1284.9 206.507 1297.08 198.89C1333.39 176.193 1381.22 171.531 1425.04 186.423C1461.84 198.931 1491.4 223.309 1508.28 255.07C1515.63 268.938 1521.09 284.312 1526.36 299.193C1536.36 327.416 1545.8 354.076 1567.26 372.266C1578.65 381.928 1592.64 388.127 1606.16 394.125C1612.77 397.063 1619.61 400.095 1626.11 403.513C1640.67 411.165 1665.34 428.019 1667.07 454.925C1669.19 487.923 1633.17 513.383 1598.19 516.461C1583.86 517.719 1569.25 516.678 1555.14 515.632C1536.76 514.314 1517.75 512.952 1499.43 516.747C1465.58 523.789 1437.71 547.34 1410.74 570.12C1403.66 576.108 1396.33 582.276 1389.02 588.073C1369.97 603.173 1320.98 636.512 1276.87 621.519ZM1424.23 188.682C1381.06 174.009 1333.95 178.582 1298.22 200.917C1286.17 208.451 1274.81 217.913 1263.82 227.057C1244.2 243.393 1223.91 260.29 1199.17 266.523C1181.88 270.878 1163.9 269.596 1146.49 268.349C1139.34 267.837 1131.96 267.309 1124.75 267.19C1106.96 266.877 1074.77 269.844 1058.91 293.248C1038.27 323.747 1059.85 367.232 1091.62 390.01C1102.35 397.717 1114.25 404.333 1125.74 410.741C1147.14 422.681 1169.26 435.024 1184.73 454.653C1200.82 475.089 1208.68 501.932 1216.27 527.898C1226.85 564.054 1236.83 598.222 1267.31 614.769C1270.62 616.567 1274.07 618.08 1277.63 619.291C1320.69 633.926 1368.87 601.093 1387.59 586.294C1394.86 580.548 1402.18 574.363 1409.25 568.387C1436.44 545.422 1464.55 521.667 1498.97 514.513C1517.57 510.644 1536.74 512.018 1555.28 513.35C1569.32 514.353 1583.83 515.396 1597.99 514.151C1631.86 511.175 1666.75 486.762 1664.72 455.166C1663 428.444 1636.35 411.648 1624.98 405.664C1618.55 402.284 1611.74 399.265 1605.16 396.346C1591.5 390.28 1577.37 384.009 1565.72 374.139C1543.79 355.543 1533.8 327.349 1524.14 300.071C1518.89 285.294 1513.47 269.967 1506.2 256.263C1489.6 224.989 1460.49 201.012 1424.23 188.69L1424.23 188.682Z" fill="#6A1AB7"/>
<g filter="url(#filter0_f_83_151)">
<ellipse cx="264.458" cy="229.048" rx="264.458" ry="163.634" fill="url(#paint1_radial_83_151)" fill-opacity="0.24"/>
</g>
<g filter="url(#filter1_f_83_151)">
<ellipse cx="1514.79" cy="615.634" rx="157.791" ry="97.6336" transform="rotate(180 1514.79 615.634)" fill="url(#paint2_linear_83_151)" fill-opacity="0.3"/>
</g>
<g filter="url(#filter2_f_83_151)">
<ellipse cx="88.9941" cy="55.0654" rx="88.9941" ry="55.0654" transform="matrix(-1 0 0 1 1920 0)" fill="url(#paint3_linear_83_151)" fill-opacity="0.7"/>
</g>
<ellipse cx="1621" cy="279.97" rx="34" ry="33.97" fill="url(#paint4_linear_83_151)"/>
<ellipse cx="694" cy="541.521" rx="11" ry="10.9903" fill="url(#paint5_linear_83_151)"/>
<ellipse cx="1537" cy="513.548" rx="16" ry="15.9859" fill="url(#paint6_linear_83_151)"/>
<ellipse cx="1203" cy="223.802" rx="8" ry="7.99294" fill="url(#paint7_linear_83_151)"/>
<path d="M1572.5 176.787C1565.74 176.78 1559.26 174.096 1554.48 169.325C1549.7 164.554 1547.01 158.085 1547 151.338C1547.01 144.591 1549.7 138.122 1554.48 133.351C1559.26 128.58 1565.74 125.896 1572.5 125.889C1579.27 125.896 1585.75 128.58 1590.53 133.351C1595.31 138.122 1598 144.591 1598.01 151.338C1598 158.085 1595.31 164.554 1590.53 169.325C1585.75 174.096 1579.27 176.78 1572.5 176.787ZM1572.5 128.102C1566.33 128.107 1560.41 130.557 1556.04 134.913C1551.68 139.27 1549.22 145.176 1549.21 151.338C1549.22 157.498 1551.67 163.404 1556.04 167.76C1560.4 172.116 1566.32 174.567 1572.5 174.574C1578.67 174.567 1584.59 172.116 1588.95 167.76C1593.32 163.404 1595.78 157.498 1595.78 151.338C1595.78 145.179 1593.32 139.274 1588.96 134.918C1584.59 130.563 1578.68 128.111 1572.5 128.102Z" fill="#6A1AB7"/>
<path d="M861.504 296.681C854.742 296.674 848.26 293.99 843.478 289.219C838.697 284.448 836.008 277.979 836 271.232C836.008 264.485 838.697 258.016 843.478 253.245C848.26 248.474 854.742 245.79 861.504 245.783C868.266 245.79 874.749 248.474 879.53 253.245C884.311 258.016 887.001 264.485 887.008 271.232C887.001 277.979 884.311 284.448 879.53 289.219C874.749 293.99 868.266 296.674 861.504 296.681ZM861.504 247.996C855.329 248.001 849.409 250.451 845.042 254.807C840.675 259.164 838.218 265.07 838.211 271.232C838.218 277.392 840.674 283.298 845.039 287.654C849.405 292.01 855.323 294.461 861.497 294.468C867.671 294.461 873.589 292.01 877.955 287.654C882.32 283.298 884.776 277.392 884.784 271.232C884.776 265.073 882.321 259.168 877.957 254.812C873.593 250.457 867.677 248.005 861.504 247.996Z" fill="#6A1AB7"/>
<defs>
<filter id="filter0_f_83_151" x="-150" y="-84.5855" width="828.915" height="627.268" filterUnits="userSpaceOnUse" color-interpolation-filters="sRGB">
<feFlood flood-opacity="0" result="BackgroundImageFix"/>
<feBlend mode="normal" in="SourceGraphic" in2="BackgroundImageFix" result="shape"/>
<feGaussianBlur stdDeviation="75" result="effect1_foregroundBlur_83_151"/>
</filter>
<filter id="filter1_f_83_151" x="1207" y="368" width="615.582" height="495.267" filterUnits="userSpaceOnUse" color-interpolation-filters="sRGB">
<feFlood flood-opacity="0" result="BackgroundImageFix"/>
<feBlend mode="normal" in="SourceGraphic" in2="BackgroundImageFix" result="shape"/>
<feGaussianBlur stdDeviation="75" result="effect1_foregroundBlur_83_151"/>
</filter>
<filter id="filter2_f_83_151" x="1592.01" y="-150" width="477.988" height="410.131" filterUnits="userSpaceOnUse" color-interpolation-filters="sRGB">
<feFlood flood-opacity="0" result="BackgroundImageFix"/>
<feBlend mode="normal" in="SourceGraphic" in2="BackgroundImageFix" result="shape"/>
<feGaussianBlur stdDeviation="75" result="effect1_foregroundBlur_83_151"/>
</filter>
<linearGradient id="paint0_linear_83_151" x1="1152" y1="469.585" x2="1116.44" y2="517.573" gradientUnits="userSpaceOnUse">
<stop stop-color="#E250E5"/>
<stop offset="1" stop-color="#4B50E6"/>
</linearGradient>
<radialGradient id="paint1_radial_83_151" cx="0" cy="0" r="1" gradientUnits="userSpaceOnUse" gradientTransform="translate(305.659 244.463) rotate(34.1621) scale(179.488 167.508)">
<stop stop-color="#2B1867"/>
<stop offset="0.487063" stop-color="#382383"/>
<stop offset="0.781641" stop-color="#452896"/>
<stop offset="1" stop-color="#76248E"/>
</radialGradient>
<linearGradient id="paint2_linear_83_151" x1="1450.76" y1="564.694" x2="1545.02" y2="731.775" gradientUnits="userSpaceOnUse">
<stop stop-color="#2B1867"/>
<stop offset="0.487063" stop-color="#382383"/>
<stop offset="0.781641" stop-color="#452896"/>
<stop offset="1" stop-color="#76248E"/>
</linearGradient>
<linearGradient id="paint3_linear_83_151" x1="52.8805" y1="26.3356" x2="106.043" y2="120.569" gradientUnits="userSpaceOnUse">
<stop stop-color="#2B1867"/>
<stop offset="0.487063" stop-color="#3F298D"/>
<stop offset="0.781641" stop-color="#453D9A"/>
<stop offset="1" stop-color="#5D6AA7"/>
</linearGradient>
<linearGradient id="paint4_linear_83_151" x1="1646.5" y1="246" x2="1596.12" y2="313.983" gradientUnits="userSpaceOnUse">
<stop stop-color="#E250E5"/>
<stop offset="1" stop-color="#4B50E6"/>
</linearGradient>
<linearGradient id="paint5_linear_83_151" x1="702.25" y1="530.531" x2="685.952" y2="552.526" gradientUnits="userSpaceOnUse">
<stop stop-color="#E250E5"/>
<stop offset="1" stop-color="#4B50E6"/>
</linearGradient>
<linearGradient id="paint6_linear_83_151" x1="1549" y1="497.562" x2="1525.29" y2="529.554" gradientUnits="userSpaceOnUse">
<stop stop-color="#E250E5"/>
<stop offset="1" stop-color="#4B50E6"/>
</linearGradient>
<linearGradient id="paint7_linear_83_151" x1="1209" y1="215.809" x2="1197.15" y2="231.805" gradientUnits="userSpaceOnUse">
<stop stop-color="#E250E5"/>
<stop offset="1" stop-color="#4B50E6"/>
</linearGradient>
</defs>
</svg>
